<svg width="527" height="96" viewBox="0 0 527 96" fill="none" xmlns="http://www.w3.org/2000/svg">
<path d="M35.6545 59.81L0.294492 2.22H23.9545L51.1245 48.76H35.9145L63.0845 2.22H86.2245L50.6045 59.81H35.6545ZM33.1845 94V50.45H53.5945V94H33.1845ZM106.757 95.43C100.257 95.43 94.3641 94 89.0774 91.14C83.8774 88.1933 79.7607 84.2067 76.7274 79.18C73.694 74.1533 72.1774 68.52 72.1774 62.28C72.1774 56.04 73.694 50.45 76.7274 45.51C79.7607 40.57 83.8774 36.67 89.0774 33.81C94.2774 30.8633 100.171 29.39 106.757 29.39C113.344 29.39 119.237 30.82 124.437 33.68C129.637 36.54 133.754 40.4833 136.787 45.51C139.821 50.45 141.337 56.04 141.337 62.28C141.337 68.52 139.821 74.1533 136.787 79.18C133.754 84.2067 129.637 88.1933 124.437 91.14C119.237 94 113.344 95.43 106.757 95.43ZM106.757 77.36C109.617 77.36 112.131 76.7533 114.297 75.54C116.464 74.24 118.111 72.4633 119.237 70.21C120.451 67.87 121.057 65.2267 121.057 62.28C121.057 59.3333 120.451 56.7767 119.237 54.61C118.024 52.3567 116.334 50.6233 114.167 49.41C112.087 48.11 109.617 47.46 106.757 47.46C103.984 47.46 101.514 48.11 99.3474 49.41C97.1807 50.6233 95.4907 52.3567 94.2774 54.61C93.064 56.8633 92.4574 59.4633 92.4574 62.41C92.4574 65.27 93.064 67.87 94.2774 70.21C95.4907 72.4633 97.1807 74.24 99.3474 75.54C101.514 76.7533 103.984 77.36 106.757 77.36ZM179.32 95.43C173.513 95.43 168.356 94.26 163.85 91.92C159.43 89.4933 155.963 86.2 153.45 82.04C150.936 77.7933 149.68 72.94 149.68 67.48V30.82H169.57V67.22C169.57 69.3867 169.916 71.25 170.61 72.81C171.39 74.37 172.516 75.5833 173.99 76.45C175.463 77.3167 177.24 77.75 179.32 77.75C182.266 77.75 184.606 76.84 186.34 75.02C188.073 73.1133 188.94 70.5133 188.94 67.22V30.82H208.83V67.35C208.83 72.8967 207.573 77.7933 205.06 82.04C202.546 86.2 199.08 89.4933 194.66 91.92C190.24 94.26 185.126 95.43 179.32 95.43ZM291.444 95.43C284.597 95.43 278.227 94.26 272.334 91.92C266.527 89.4933 261.414 86.1133 256.994 81.78C252.66 77.4467 249.28 72.42 246.854 66.7C244.427 60.8933 243.214 54.6533 243.214 47.98C243.214 41.3067 244.427 35.11 246.854 29.39C249.28 23.5833 252.66 18.5567 256.994 14.31C261.327 10.0633 266.397 6.76999 272.204 4.43C278.097 2.00333 284.467 0.789999 291.314 0.789999C298.594 0.789999 305.05 1.96 310.684 4.29999C316.404 6.63999 321.387 9.84666 325.634 13.92L311.984 27.7C309.557 25.1 306.61 23.0633 303.144 21.59C299.764 20.1167 295.82 19.38 291.314 19.38C287.327 19.38 283.644 20.0733 280.264 21.46C276.97 22.76 274.11 24.6667 271.684 27.18C269.344 29.6933 267.48 32.7267 266.094 36.28C264.794 39.8333 264.144 43.7333 264.144 47.98C264.144 52.3133 264.794 56.2567 266.094 59.81C267.48 63.3633 269.344 66.3967 271.684 68.91C274.11 71.4233 276.97 73.3733 280.264 74.76C283.644 76.1467 287.327 76.84 291.314 76.84C295.994 76.84 300.067 76.1033 303.534 74.63C307 73.1567 309.99 71.12 312.504 68.52L326.284 82.3C321.864 86.3733 316.794 89.58 311.074 91.92C305.44 94.26 298.897 95.43 291.444 95.43ZM360.569 95.3C354.763 95.3 349.563 93.87 344.969 91.01C340.463 88.15 336.866 84.25 334.179 79.31C331.579 74.37 330.279 68.7367 330.279 62.41C330.279 56.0833 331.579 50.45 334.179 45.51C336.866 40.57 340.463 36.67 344.969 33.81C349.563 30.95 354.763 29.52 360.569 29.52C364.816 29.52 368.629 30.3433 372.009 31.99C375.476 33.6367 378.293 35.9333 380.459 38.88C382.626 41.74 383.839 45.0333 384.099 48.76V76.06C383.839 79.7867 382.626 83.1233 380.459 86.07C378.379 88.93 375.606 91.1833 372.139 92.83C368.673 94.4767 364.816 95.3 360.569 95.3ZM364.599 77.36C368.846 77.36 372.269 75.9733 374.869 73.2C377.469 70.34 378.769 66.7433 378.769 62.41C378.769 59.4633 378.163 56.8633 376.949 54.61C375.823 52.3567 374.176 50.6233 372.009 49.41C369.929 48.11 367.503 47.46 364.729 47.46C361.956 47.46 359.486 48.11 357.319 49.41C355.239 50.6233 353.549 52.3567 352.249 54.61C351.036 56.8633 350.429 59.4633 350.429 62.41C350.429 65.27 351.036 67.8267 352.249 70.08C353.463 72.3333 355.153 74.11 357.319 75.41C359.486 76.71 361.913 77.36 364.599 77.36ZM377.989 94V76.97L380.979 61.63L377.989 46.29V30.82H397.489V94H377.989ZM411.494 94V30.82H431.384V94H411.494ZM431.384 59.29L423.064 52.79C424.71 45.4233 427.484 39.7033 431.384 35.63C435.284 31.5567 440.7 29.52 447.634 29.52C450.667 29.52 453.31 29.9967 455.564 30.95C457.904 31.8167 459.94 33.2033 461.674 35.11L449.844 50.06C448.977 49.1067 447.894 48.37 446.594 47.85C445.294 47.33 443.82 47.07 442.174 47.07C438.88 47.07 436.237 48.11 434.244 50.19C432.337 52.1833 431.384 55.2167 431.384 59.29ZM496.395 95.43C489.548 95.43 483.438 94.0433 478.065 91.27C472.778 88.41 468.618 84.4667 465.585 79.44C462.551 74.4133 461.035 68.7367 461.035 62.41C461.035 56.0833 462.508 50.45 465.455 45.51C468.488 40.4833 472.561 36.54 477.675 33.68C482.788 30.82 488.551 29.39 494.965 29.39C501.205 29.39 506.708 30.7333 511.475 33.42C516.241 36.1067 519.968 39.8333 522.655 44.6C525.428 49.3667 526.815 54.8267 526.815 60.98C526.815 62.1067 526.728 63.32 526.555 64.62C526.468 65.8333 526.251 67.2633 525.905 68.91L471.435 69.04V55.39L517.455 55.26L508.875 60.98C508.788 57.34 508.225 54.35 507.185 52.01C506.145 49.5833 504.585 47.7633 502.505 46.55C500.511 45.25 498.041 44.6 495.095 44.6C491.975 44.6 489.245 45.3367 486.905 46.81C484.651 48.1967 482.875 50.19 481.575 52.79C480.361 55.39 479.755 58.5533 479.755 62.28C479.755 66.0067 480.405 69.2133 481.705 71.9C483.091 74.5 484.998 76.5367 487.425 78.01C489.938 79.3967 492.885 80.09 496.265 80.09C499.385 80.09 502.201 79.57 504.715 78.53C507.228 77.4033 509.438 75.7567 511.345 73.59L522.265 84.51C519.145 88.15 515.375 90.88 510.955 92.7C506.535 94.52 501.681 95.43 496.395 95.43Z" fill="#E3F7F7"/>
<path d="M35.6545 59.81L34.8023 60.3332L35.095 60.81H35.6545V59.81ZM0.294492 2.22V1.22H-1.49296L-0.557694 2.74324L0.294492 2.22ZM23.9545 2.22L24.8181 1.71582L24.5286 1.22H23.9545V2.22ZM51.1245 48.76V49.76H52.8662L51.9881 48.2558L51.1245 48.76ZM35.9145 48.76L35.0509 48.2558L34.1728 49.76H35.9145V48.76ZM63.0845 2.22V1.22H62.5104L62.2209 1.71582L63.0845 2.22ZM86.2245 2.22L87.075 2.74602L88.0188 1.22H86.2245V2.22ZM50.6045 59.81V60.81H51.1618L51.455 60.336L50.6045 59.81ZM33.1845 94H32.1845V95H33.1845V94ZM33.1845 50.45V49.45H32.1845V50.45H33.1845ZM53.5945 50.45H54.5945V49.45H53.5945V50.45ZM53.5945 94V95H54.5945V94H53.5945ZM36.5067 59.2868L1.14668 1.69676L-0.557694 2.74324L34.8023 60.3332L36.5067 59.2868ZM0.294492 3.22H23.9545V1.22H0.294492V3.22ZM23.0909 2.72417L50.2609 49.2642L51.9881 48.2558L24.8181 1.71582L23.0909 2.72417ZM51.1245 47.76H35.9145V49.76H51.1245V47.76ZM36.7781 49.2642L63.9481 2.72417L62.2209 1.71582L35.0509 48.2558L36.7781 49.2642ZM63.0845 3.22H86.2245V1.22H63.0845V3.22ZM85.374 1.69397L49.754 59.284L51.455 60.336L87.075 2.74602L85.374 1.69397ZM50.6045 58.81H35.6545V60.81H50.6045V58.81ZM34.1845 94V50.45H32.1845V94H34.1845ZM33.1845 51.45H53.5945V49.45H33.1845V51.45ZM52.5945 50.45V94H54.5945V50.45H52.5945ZM53.5945 93H33.1845V95H53.5945V93ZM89.0774 91.14L88.5844 92.01L88.5929 92.0149L88.6016 92.0195L89.0774 91.14ZM76.7274 79.18L77.5836 78.6633L76.7274 79.18ZM76.7274 45.51L75.8752 44.9867L76.7274 45.51ZM89.0774 33.81L89.5593 34.6863L89.5704 34.68L89.0774 33.81ZM136.787 45.51L135.931 46.0267L135.935 46.0333L136.787 45.51ZM136.787 79.18L137.644 79.6967H137.644L136.787 79.18ZM124.437 91.14L124.919 92.0163L124.93 92.01L124.437 91.14ZM114.297 75.54L114.786 76.4125L114.799 76.4052L114.812 76.3975L114.297 75.54ZM119.237 70.21L118.35 69.7497L118.346 69.7562L118.343 69.7628L119.237 70.21ZM119.237 54.61L118.357 55.0841L118.361 55.0914L118.365 55.0986L119.237 54.61ZM114.167 49.41L113.637 50.258L113.658 50.2707L113.679 50.2825L114.167 49.41ZM99.3474 49.41L99.836 50.2825L99.849 50.2752L99.8619 50.2675L99.3474 49.41ZM94.2774 54.61L95.1579 55.0841L94.2774 54.61ZM94.2774 70.21L93.3896 70.6703L93.3932 70.6772L93.3969 70.6841L94.2774 70.21ZM99.3474 75.54L98.8329 76.3975L98.8457 76.4052L98.8588 76.4125L99.3474 75.54ZM106.757 94.43C100.41 94.43 94.682 93.035 89.5532 90.2605L88.6016 92.0195C94.0461 94.965 100.105 96.43 106.757 96.43V94.43ZM89.5704 90.27C84.517 87.4064 80.5265 83.5402 77.5836 78.6633L75.8712 79.6967C78.9949 84.8731 83.2378 88.9803 88.5844 92.01L89.5704 90.27ZM77.5836 78.6633C74.6503 73.8025 73.1774 68.3498 73.1774 62.28H71.1774C71.1774 68.6902 72.7378 74.5042 75.8712 79.6967L77.5836 78.6633ZM73.1774 62.28C73.1774 56.2101 74.6503 50.8038 77.5796 46.0333L75.8752 44.9867C72.7378 50.0962 71.1774 55.8699 71.1774 62.28H73.1774ZM77.5796 46.0333C80.5199 41.2447 84.5075 37.4647 89.5593 34.6862L88.5955 32.9338C83.2473 35.8753 79.0015 39.8953 75.8752 44.9867L77.5796 46.0333ZM89.5704 34.68C94.6051 31.827 100.325 30.39 106.757 30.39V28.39C100.016 28.39 93.9497 29.8996 88.5844 32.94L89.5704 34.68ZM106.757 30.39C113.194 30.39 118.919 31.7861 123.955 34.5562L124.919 32.8038C119.556 29.8539 113.494 28.39 106.757 28.39V30.39ZM123.955 34.5562C129.003 37.3324 132.99 41.1524 135.931 46.0267L137.644 44.9933C134.518 39.8143 130.272 35.7476 124.919 32.8038L123.955 34.5562ZM135.935 46.0333C138.864 50.8038 140.337 56.2101 140.337 62.28H142.337C142.337 55.8699 140.777 50.0962 137.64 44.9867L135.935 46.0333ZM140.337 62.28C140.337 68.3498 138.864 73.8025 135.931 78.6633L137.644 79.6967C140.777 74.5042 142.337 68.6902 142.337 62.28H140.337ZM135.931 78.6633C132.988 83.5402 128.998 87.4064 123.944 90.27L124.93 92.01C130.277 88.9803 134.52 84.8731 137.644 79.6967L135.931 78.6633ZM123.955 90.2638C118.919 93.0339 113.194 94.43 106.757 94.43V96.43C113.494 96.43 119.556 94.9661 124.919 92.0162L123.955 90.2638ZM106.757 78.36C109.762 78.36 112.449 77.7214 114.786 76.4125L113.809 74.6675C111.813 75.7853 109.473 76.36 106.757 76.36V78.36ZM114.812 76.3975C117.141 75 118.92 73.0812 120.132 70.6572L118.343 69.7628C117.302 71.8455 115.787 73.48 113.783 74.6825L114.812 76.3975ZM120.125 70.6703C121.421 68.172 122.057 65.3677 122.057 62.28H120.057C120.057 65.0856 119.481 67.568 118.35 69.7497L120.125 70.6703ZM122.057 62.28C122.057 59.1942 121.421 56.463 120.11 54.1214L118.365 55.0986C119.48 57.0904 120.057 59.4724 120.057 62.28H122.057ZM120.118 54.1359C118.817 51.7206 116.994 49.8466 114.656 48.5375L113.679 50.2825C115.674 51.4 117.231 52.9927 118.357 55.0841L120.118 54.1359ZM114.697 48.562C112.434 47.1471 109.773 46.46 106.757 46.46V48.46C109.462 48.46 111.741 49.0729 113.637 50.258L114.697 48.562ZM106.757 46.46C103.821 46.46 101.17 47.1503 98.8329 48.5525L99.8619 50.2675C101.858 49.0697 104.147 48.46 106.757 48.46V46.46ZM98.8588 48.5375C96.521 49.8466 94.6974 51.7206 93.3969 54.1359L95.1579 55.0841C96.284 52.9927 97.8404 51.4 99.836 50.2825L98.8588 48.5375ZM93.3969 54.1359C92.094 56.5557 91.4574 59.3231 91.4574 62.41H93.4574C93.4574 59.6036 94.0341 57.171 95.1579 55.0841L93.3969 54.1359ZM91.4574 62.41C91.4574 65.4163 92.0964 68.1762 93.3896 70.6703L95.1651 69.7497C94.0317 67.5638 93.4574 65.1237 93.4574 62.41H91.4574ZM93.3969 70.6841C94.6944 73.0937 96.5099 75.0037 98.8329 76.3975L99.8619 74.6825C97.8515 73.4763 96.2871 71.833 95.1579 69.7359L93.3969 70.6841ZM98.8588 76.4125C101.192 77.7189 103.833 78.36 106.757 78.36V76.36C104.135 76.36 101.837 75.7878 99.836 74.6675L98.8588 76.4125ZM163.85 91.92L163.368 92.7966L163.379 92.8022L163.389 92.8075L163.85 91.92ZM153.45 82.04L152.589 82.5493L152.594 82.5571L153.45 82.04ZM149.68 30.82V29.82H148.68V30.82H149.68ZM169.57 30.82H170.57V29.82H169.57V30.82ZM170.61 72.81L169.696 73.2161L169.705 73.2369L169.715 73.2572L170.61 72.81ZM173.99 76.45L174.497 75.5881L173.99 76.45ZM186.34 75.02L187.064 75.7097L187.072 75.7013L187.08 75.6927L186.34 75.02ZM188.94 30.82V29.82H187.94V30.82H188.94ZM208.83 30.82H209.83V29.82H208.83V30.82ZM205.06 82.04L205.916 82.5571L205.92 82.5493L205.06 82.04ZM194.66 91.92L195.128 92.8038L195.134 92.8002L195.141 92.7966L194.66 91.92ZM179.32 94.43C173.65 94.43 168.656 93.2886 164.311 91.0325L163.389 92.8075C168.057 95.2314 173.376 96.43 179.32 96.43V94.43ZM164.331 91.0434C160.059 88.6982 156.724 85.5264 154.306 81.5229L152.594 82.5571C155.202 86.8736 158.8 90.2885 163.368 92.7966L164.331 91.0434ZM154.31 81.5307C151.898 77.4543 150.68 72.7804 150.68 67.48H148.68C148.68 73.0996 149.975 78.1324 152.589 82.5493L154.31 81.5307ZM150.68 67.48V30.82H148.68V67.48H150.68ZM149.68 31.82H169.57V29.82H149.68V31.82ZM168.57 30.82V67.22H170.57V30.82H168.57ZM168.57 67.22C168.57 69.4902 168.933 71.4988 169.696 73.2161L171.524 72.4039C170.9 71.0012 170.57 69.2831 170.57 67.22H168.57ZM169.715 73.2572C170.58 74.9862 171.839 76.3452 173.483 77.3119L174.497 75.5881C173.193 74.8214 172.2 73.7538 171.504 72.3628L169.715 73.2572ZM173.483 77.3119C175.14 78.2867 177.1 78.75 179.32 78.75V76.75C177.379 76.75 175.786 76.3466 174.497 75.5881L173.483 77.3119ZM179.32 78.75C182.489 78.75 185.109 77.7621 187.064 75.7097L185.616 74.3303C184.104 75.9179 182.044 76.75 179.32 76.75V78.75ZM187.08 75.6927C189.023 73.5551 189.94 70.6906 189.94 67.22H187.94C187.94 70.3361 187.123 72.6716 185.6 74.3473L187.08 75.6927ZM189.94 67.22V30.82H187.94V67.22H189.94ZM188.94 31.82H208.83V29.82H188.94V31.82ZM207.83 30.82V67.35H209.83V30.82H207.83ZM207.83 67.35C207.83 72.7402 206.61 77.4567 204.199 81.5307L205.92 82.5493C208.536 78.13 209.83 73.0531 209.83 67.35H207.83ZM204.204 81.5229C201.785 85.5264 198.45 88.6982 194.178 91.0434L195.141 92.7966C199.709 90.2885 203.308 86.8736 205.916 82.5571L204.204 81.5229ZM194.192 91.0362C189.938 93.2884 184.99 94.43 179.32 94.43V96.43C185.263 96.43 190.542 95.2316 195.128 92.8038L194.192 91.0362ZM272.334 91.92L271.948 92.8427L271.956 92.8461L271.965 92.8494L272.334 91.92ZM256.994 81.78L256.287 82.4871L256.294 82.4941L256.994 81.78ZM246.854 66.7L245.931 67.0856L245.933 67.0905L246.854 66.7ZM246.854 29.39L247.774 29.7806L247.776 29.7756L246.854 29.39ZM256.994 14.31L257.694 15.0242L256.994 14.31ZM272.204 4.43L272.578 5.35754L272.584 5.35468L272.204 4.43ZM310.684 4.29999L310.3 5.2235L310.305 5.22554L310.684 4.29999ZM325.634 13.92L326.344 14.6237L327.059 13.9018L326.326 13.1983L325.634 13.92ZM311.984 27.7L311.253 28.3823L311.962 29.1426L312.694 28.4037L311.984 27.7ZM303.144 21.59L302.744 22.5067L302.753 22.5103L303.144 21.59ZM280.264 21.46L280.631 22.3902L280.643 22.3852L280.264 21.46ZM271.684 27.18L270.964 26.4854L270.958 26.4919L270.952 26.4986L271.684 27.18ZM266.094 36.28L265.162 35.9165L265.158 35.9264L265.155 35.9364L266.094 36.28ZM266.094 59.81L265.155 60.1536L265.158 60.1636L265.162 60.1735L266.094 59.81ZM271.684 68.91L270.952 69.5914L270.958 69.5981L270.964 69.6046L271.684 68.91ZM280.264 74.76L279.876 75.6817L279.884 75.6852L280.264 74.76ZM303.534 74.63L303.143 73.7097L303.534 74.63ZM312.504 68.52L313.211 67.8129L312.492 67.0937L311.785 67.825L312.504 68.52ZM326.284 82.3L326.961 83.0354L327.727 82.3295L326.991 81.5929L326.284 82.3ZM311.074 91.92L310.695 90.9944L310.69 90.9965L311.074 91.92ZM291.444 94.43C284.713 94.43 278.47 93.2803 272.703 90.9906L271.965 92.8494C277.985 95.2397 284.481 96.43 291.444 96.43V94.43ZM272.719 90.9973C267.028 88.6188 262.022 85.3089 257.694 81.0659L256.294 82.4941C260.806 86.9178 266.026 90.3679 271.948 92.8427L272.719 90.9973ZM257.701 81.0729C253.46 76.8317 250.152 71.9129 247.774 66.3094L245.933 67.0905C248.409 72.9271 251.861 78.0617 256.287 82.4871L257.701 81.0729ZM247.776 66.3144C245.404 60.6372 244.214 54.5291 244.214 47.98H242.214C242.214 54.7776 243.45 61.1495 245.931 67.0856L247.776 66.3144ZM244.214 47.98C244.214 41.4308 245.404 35.3681 247.774 29.7805L245.933 28.9995C243.45 34.8519 242.214 41.1825 242.214 47.98H244.214ZM247.776 29.7756C250.153 24.0876 253.459 19.1738 257.694 15.0242L256.294 13.5958C251.861 17.9395 248.407 23.0791 245.931 29.0044L247.776 29.7756ZM257.694 15.0242C261.93 10.8723 266.889 7.65008 272.577 5.35752L271.83 3.50248C265.906 5.88991 260.724 9.25437 256.294 13.5958L257.694 15.0242ZM272.584 5.35468C278.348 2.98134 284.588 1.79 291.314 1.79V-0.209999C284.346 -0.209999 277.846 1.02532 271.823 3.50532L272.584 5.35468ZM291.314 1.79C298.487 1.79 304.809 2.94276 310.3 5.22349L311.067 3.3765C305.291 0.977226 298.7 -0.209999 291.314 -0.209999V1.79ZM310.305 5.22554C315.915 7.52034 320.79 10.6597 324.941 14.6417L326.326 13.1983C321.984 9.03357 316.893 5.75965 311.062 3.37445L310.305 5.22554ZM324.923 13.2162L311.273 26.9962L312.694 28.4037L326.344 14.6237L324.923 13.2162ZM312.715 27.0177C310.187 24.3095 307.122 22.1944 303.535 20.6697L302.753 22.5103C306.098 23.9323 308.927 25.8905 311.253 28.3823L312.715 27.0177ZM303.543 20.6733C300.013 19.1342 295.928 18.38 291.314 18.38V20.38C295.713 20.38 299.515 21.0991 302.744 22.5067L303.543 20.6733ZM291.314 18.38C287.209 18.38 283.395 19.0944 279.884 20.5348L280.643 22.3852C283.892 21.0523 287.445 20.38 291.314 20.38V18.38ZM279.897 20.5298C276.472 21.8816 273.492 23.8679 270.964 26.4854L272.403 27.8746C274.729 25.4655 277.469 23.6384 280.631 22.3902L279.897 20.5298ZM270.952 26.4986C268.517 29.114 266.59 32.2585 265.162 35.9165L267.025 36.6435C268.371 33.1948 270.171 30.2727 272.416 27.8614L270.952 26.4986ZM265.155 35.9364C263.81 39.6124 263.144 43.6304 263.144 47.98H265.144C265.144 43.8363 265.778 40.0542 267.033 36.6236L265.155 35.9364ZM263.144 47.98C263.144 52.4137 263.809 56.4754 265.155 60.1536L267.033 59.4664C265.779 56.0379 265.144 52.2129 265.144 47.98H263.144ZM265.162 60.1735C266.59 63.8315 268.517 66.976 270.952 69.5914L272.416 68.2286C270.171 65.8174 268.371 62.8952 267.025 59.4465L265.162 60.1735ZM270.964 69.6046C273.487 72.2175 276.461 74.2437 279.876 75.6816L280.652 73.8384C277.48 72.503 274.734 70.6292 272.403 68.2154L270.964 69.6046ZM279.884 75.6852C283.395 77.1256 287.209 77.84 291.314 77.84V75.84C287.445 75.84 283.892 75.1677 280.643 73.8348L279.884 75.6852ZM291.314 77.84C296.097 77.84 300.308 77.0873 303.925 75.5503L303.143 73.7097C299.826 75.1193 295.891 75.84 291.314 75.84V77.84ZM303.925 75.5503C307.51 74.0268 310.612 71.9153 313.223 69.215L311.785 67.825C309.368 70.3247 306.491 72.2865 303.143 73.7097L303.925 75.5503ZM311.797 69.2271L325.577 83.0071L326.991 81.5929L313.211 67.8129L311.797 69.2271ZM325.606 81.5646C321.276 85.555 316.308 88.6982 310.695 90.9945L311.452 92.8456C317.279 90.4618 322.451 87.1917 326.961 83.0354L325.606 81.5646ZM310.69 90.9965C305.202 93.2761 298.794 94.43 291.444 94.43V96.43C299 96.43 305.679 95.2439 311.457 92.8435L310.69 90.9965ZM344.969 91.01L344.433 91.8544L344.441 91.8589L344.969 91.01ZM334.179 79.31L333.294 79.7758L333.301 79.7878L334.179 79.31ZM334.179 45.51L333.301 45.0322L333.294 45.0443L334.179 45.51ZM344.969 33.81L344.441 32.9611L344.433 32.9657L344.969 33.81ZM372.009 31.99L371.571 32.889L371.58 32.8933L372.009 31.99ZM380.459 38.88L379.654 39.4724L379.658 39.4781L379.662 39.4839L380.459 38.88ZM384.099 48.76H385.099V48.7252L385.097 48.6904L384.099 48.76ZM384.099 76.06L385.097 76.1296L385.099 76.0948V76.06H384.099ZM380.459 86.07L379.654 85.4776L379.65 85.4818L380.459 86.07ZM372.139 92.83L371.71 91.9267L372.139 92.83ZM374.869 73.2L375.599 73.8839L375.604 73.8783L375.609 73.8727L374.869 73.2ZM376.949 54.61L376.055 55.0572L376.062 55.0708L376.069 55.0841L376.949 54.61ZM372.009 49.41L371.479 50.258L371.5 50.2707L371.521 50.2825L372.009 49.41ZM357.319 49.41L357.823 50.2738L357.834 50.2675L357.319 49.41ZM352.249 54.61L351.383 54.1103L351.376 54.123L351.369 54.1359L352.249 54.61ZM352.249 70.08L351.369 70.5541L352.249 70.08ZM377.989 94H376.989V95H377.989V94ZM377.989 76.97L377.008 76.7787L376.989 76.8735V76.97H377.989ZM380.979 61.63L381.961 61.8213L381.998 61.63L381.961 61.4387L380.979 61.63ZM377.989 46.29H376.989V46.3866L377.008 46.4813L377.989 46.29ZM377.989 30.82V29.82H376.989V30.82H377.989ZM397.489 30.82H398.489V29.82H397.489V30.82ZM397.489 94V95H398.489V94H397.489ZM360.569 94.3C354.935 94.3 349.921 92.9151 345.498 90.1611L344.441 91.8589C349.204 94.8249 354.59 96.3 360.569 96.3V94.3ZM345.505 90.1657C341.15 87.4017 337.668 83.6312 335.058 78.8322L333.301 79.7878C336.064 84.8688 339.775 88.8983 344.433 91.8543L345.505 90.1657ZM335.064 78.8443C332.549 74.066 331.279 68.5962 331.279 62.41H329.279C329.279 68.8771 330.609 74.674 333.294 79.7757L335.064 78.8443ZM331.279 62.41C331.279 56.2237 332.549 50.754 335.064 45.9757L333.294 45.0443C330.609 50.146 329.279 55.9429 329.279 62.41H331.279ZM335.058 45.9878C337.668 41.1888 341.15 37.4183 345.505 34.6543L344.433 32.9657C339.775 35.9217 336.064 39.9512 333.301 45.0322L335.058 45.9878ZM345.498 34.6589C349.921 31.9049 354.935 30.52 360.569 30.52V28.52C354.59 28.52 349.204 29.9951 344.441 32.9611L345.498 34.6589ZM360.569 30.52C364.684 30.52 368.344 31.3169 371.571 32.889L372.447 31.091C368.914 29.3697 364.948 28.52 360.569 28.52V30.52ZM371.58 32.8933C374.905 34.4726 377.59 36.6655 379.654 39.4724L381.265 38.2876C378.995 35.2011 376.047 32.8007 372.438 31.0867L371.58 32.8933ZM379.662 39.4839C381.706 42.1824 382.855 45.2883 383.102 48.8296L385.097 48.6904C384.824 44.7784 383.545 41.2976 381.256 38.2761L379.662 39.4839ZM383.099 48.76V76.06H385.099V48.76H383.099ZM383.102 75.9904C382.854 79.5324 381.706 82.6869 379.654 85.4776L381.265 86.6624C383.546 83.5597 384.824 80.0409 385.097 76.1296L383.102 75.9904ZM379.65 85.4818C377.677 88.1954 375.039 90.3455 371.71 91.9267L372.568 93.7333C376.173 92.0212 379.081 89.6646 381.268 86.6582L379.65 85.4818ZM371.71 91.9267C368.391 93.5032 364.683 94.3 360.569 94.3V96.3C364.948 96.3 368.954 95.4501 372.568 93.7333L371.71 91.9267ZM364.599 78.36C369.086 78.36 372.787 76.8836 375.599 73.8839L374.14 72.5161C371.752 75.063 368.605 76.36 364.599 76.36V78.36ZM375.609 73.8727C378.397 70.8059 379.769 66.9596 379.769 62.41H377.769C377.769 66.527 376.541 69.8741 374.129 72.5273L375.609 73.8727ZM379.769 62.41C379.769 59.3231 379.133 56.5557 377.83 54.1359L376.069 55.0841C377.192 57.171 377.769 59.6036 377.769 62.41H379.769ZM377.844 54.1628C376.629 51.733 374.842 49.8502 372.498 48.5375L371.521 50.2825C373.51 51.3964 375.016 52.9803 376.055 55.0572L377.844 54.1628ZM372.539 48.562C370.28 47.1501 367.665 46.46 364.729 46.46V48.46C367.34 48.46 369.578 49.0699 371.479 50.258L372.539 48.562ZM364.729 46.46C361.793 46.46 359.142 47.1503 356.805 48.5525L357.834 50.2675C359.83 49.0697 362.119 48.46 364.729 48.46V46.46ZM356.815 48.5462C354.573 49.8543 352.763 51.7186 351.383 54.1103L353.115 55.1097C354.336 52.9947 355.905 51.3924 357.823 50.2738L356.815 48.5462ZM351.369 54.1359C350.066 56.5557 349.429 59.3231 349.429 62.41H351.429C351.429 59.6036 352.006 57.171 353.13 55.0841L351.369 54.1359ZM349.429 62.41C349.429 65.4157 350.068 68.1386 351.369 70.5541L353.13 69.6059C352.004 67.5147 351.429 65.1243 351.429 62.41H349.429ZM351.369 70.5541C352.666 72.9637 354.482 74.8737 356.805 76.2675L357.834 74.5525C355.823 73.3463 354.259 71.703 353.13 69.6059L351.369 70.5541ZM356.805 76.2675C359.137 77.6667 361.743 78.36 364.599 78.36V76.36C362.082 76.36 359.835 75.7533 357.834 74.5525L356.805 76.2675ZM378.989 94V76.97H376.989V94H378.989ZM378.971 77.1613L381.961 61.8213L379.998 61.4387L377.008 76.7787L378.971 77.1613ZM381.961 61.4387L378.971 46.0987L377.008 46.4813L379.998 61.8213L381.961 61.4387ZM378.989 46.29V30.82H376.989V46.29H378.989ZM377.989 31.82H397.489V29.82H377.989V31.82ZM396.489 30.82V94H398.489V30.82H396.489ZM397.489 93H377.989V95H397.489V93ZM411.494 94H410.494V95H411.494V94ZM411.494 30.82V29.82H410.494V30.82H411.494ZM431.384 30.82H432.384V29.82H431.384V30.82ZM431.384 94V95H432.384V94H431.384ZM431.384 59.29L430.768 60.078L432.384 61.3402V59.29H431.384ZM423.064 52.79L422.088 52.5719L421.95 53.1888L422.448 53.578L423.064 52.79ZM431.384 35.63L432.106 36.3216L431.384 35.63ZM455.564 30.95L455.174 31.871L455.195 31.8798L455.216 31.8877L455.564 30.95ZM461.674 35.11L462.458 35.7305L462.984 35.0652L462.414 34.4373L461.674 35.11ZM449.844 50.06L449.104 50.7327L449.896 51.6047L450.628 50.6805L449.844 50.06ZM446.594 47.85L446.222 48.7785L446.594 47.85ZM434.244 50.19L433.522 49.4981L433.521 49.4988L434.244 50.19ZM412.494 94V30.82H410.494V94H412.494ZM411.494 31.82H431.384V29.82H411.494V31.82ZM430.384 30.82V94H432.384V30.82H430.384ZM431.384 93H411.494V95H431.384V93ZM431.999 58.502L423.679 52.002L422.448 53.578L430.768 60.078L431.999 58.502ZM424.04 53.0081C425.659 45.761 428.368 40.2258 432.106 36.3216L430.661 34.9384C426.599 39.1809 423.761 45.0856 422.088 52.5719L424.04 53.0081ZM432.106 36.3216C435.776 32.4889 440.906 30.52 447.634 30.52V28.52C440.494 28.52 434.792 30.6245 430.661 34.9384L432.106 36.3216ZM447.634 30.52C450.564 30.52 453.07 30.9807 455.174 31.871L455.953 30.029C453.551 29.0126 450.77 28.52 447.634 28.52V30.52ZM455.216 31.8877C457.401 32.6969 459.304 33.9905 460.934 35.7827L462.414 34.4373C460.576 32.4161 458.406 30.9364 455.911 30.0123L455.216 31.8877ZM460.889 34.4895L449.059 49.4395L450.628 50.6805L462.458 35.7305L460.889 34.4895ZM450.584 49.3873C449.606 48.3124 448.393 47.4928 446.965 46.9215L446.222 48.7785C447.394 49.2472 448.348 49.9009 449.104 50.7327L450.584 49.3873ZM446.965 46.9215C445.528 46.3467 443.926 46.07 442.174 46.07V48.07C443.715 48.07 445.059 48.3133 446.222 48.7785L446.965 46.9215ZM442.174 46.07C438.65 46.07 435.731 47.1925 433.522 49.4981L434.966 50.8819C436.743 49.0275 439.11 48.07 442.174 48.07V46.07ZM433.521 49.4988C431.367 51.7505 430.384 55.0804 430.384 59.29H432.384C432.384 55.3529 433.307 52.6162 434.966 50.8812L433.521 49.4988ZM478.065 91.27L477.589 92.1495L477.598 92.1542L477.606 92.1586L478.065 91.27ZM465.585 79.44L466.441 78.9233L465.585 79.44ZM465.455 45.51L464.599 44.9933L464.596 44.9977L465.455 45.51ZM477.675 33.68L477.187 32.8072L477.675 33.68ZM522.655 44.6L521.784 45.0911L521.79 45.1029L522.655 44.6ZM526.555 64.62L525.564 64.4878L525.56 64.5182L525.557 64.5488L526.555 64.62ZM525.905 68.91L525.907 69.91L526.717 69.9081L526.883 69.116L525.905 68.91ZM471.435 69.04H470.435V70.0424L471.437 70.04L471.435 69.04ZM471.435 55.39L471.432 54.39L470.435 54.3928V55.39H471.435ZM517.455 55.26L518.01 56.092L520.772 54.2506L517.452 54.26L517.455 55.26ZM508.875 60.98L507.875 61.0038L507.918 62.8195L509.43 61.812L508.875 60.98ZM507.185 52.01L506.266 52.404L506.271 52.4161L507.185 52.01ZM502.505 46.55L501.959 47.3876L501.979 47.4012L502.001 47.4138L502.505 46.55ZM486.905 46.81L487.429 47.6617L487.438 47.6562L486.905 46.81ZM481.575 52.79L480.68 52.3428L480.674 52.3549L480.669 52.3671L481.575 52.79ZM481.705 71.9L480.805 72.3356L480.813 72.3532L480.822 72.3706L481.705 71.9ZM487.425 78.01L486.906 78.8648L486.924 78.8756L486.942 78.8856L487.425 78.01ZM504.715 78.53L505.097 79.454L505.111 79.4485L505.124 79.4425L504.715 78.53ZM511.345 73.59L512.052 72.8829L511.298 72.1292L510.594 72.9294L511.345 73.59ZM522.265 84.51L523.024 85.1608L523.627 84.4577L522.972 83.8029L522.265 84.51ZM510.955 92.7L510.574 91.7753L510.955 92.7ZM496.395 94.43C489.686 94.43 483.737 93.0723 478.523 90.3814L477.606 92.1586C483.139 95.0143 489.41 96.43 496.395 96.43V94.43ZM478.541 90.3905C473.407 87.6132 469.38 83.7935 466.441 78.9233L464.729 79.9567C467.856 85.1398 472.149 89.2068 477.589 92.1495L478.541 90.3905ZM466.441 78.9233C463.509 74.0647 462.035 68.5692 462.035 62.41H460.035C460.035 68.9041 461.594 74.762 464.729 79.9567L466.441 78.9233ZM462.035 62.41C462.035 56.2451 463.468 50.7922 466.314 46.0223L464.596 44.9977C461.548 50.1078 460.035 55.9215 460.035 62.41H462.035ZM466.311 46.0267C469.255 41.1483 473.201 37.3278 478.163 34.5528L477.187 32.8072C471.921 35.7522 467.721 39.8184 464.599 44.9933L466.311 46.0267ZM478.163 34.5528C483.113 31.7839 488.706 30.39 494.965 30.39V28.39C488.397 28.39 482.463 29.8561 477.187 32.8072L478.163 34.5528ZM494.965 30.39C501.057 30.39 506.387 31.7002 510.984 34.2912L511.966 32.5488C507.029 29.7664 501.352 28.39 494.965 28.39V30.39ZM510.984 34.2912C515.591 36.8882 519.187 40.4834 521.784 45.091L523.526 44.109C520.75 39.1833 516.892 35.3251 511.966 32.5488L510.984 34.2912ZM521.79 45.1029C524.465 49.6997 525.815 54.9824 525.815 60.98H527.815C527.815 54.6709 526.391 49.0336 523.519 44.0971L521.79 45.1029ZM525.815 60.98C525.815 62.056 525.732 63.2247 525.564 64.4878L527.546 64.7522C527.724 63.4153 527.815 62.1573 527.815 60.98H525.815ZM525.557 64.5488C525.475 65.7033 525.267 67.0863 524.926 68.704L526.883 69.116C527.236 67.4404 527.461 65.9633 527.552 64.6912L525.557 64.5488ZM525.902 67.91L471.432 68.04L471.437 70.04L525.907 69.91L525.902 67.91ZM472.435 69.04V55.39H470.435V69.04H472.435ZM471.438 56.39L517.458 56.26L517.452 54.26L471.432 54.39L471.438 56.39ZM516.9 54.4279L508.32 60.1479L509.43 61.812L518.01 56.092L516.9 54.4279ZM509.875 60.9562C509.786 57.2357 509.21 54.1039 508.099 51.6039L506.271 52.4161C507.24 54.5961 507.79 57.4443 507.875 61.0038L509.875 60.9562ZM508.104 51.6161C506.988 49.0124 505.292 47.0181 503.009 45.6862L502.001 47.4138C503.878 48.5086 505.302 50.1543 506.266 52.4039L508.104 51.6161ZM503.051 45.7124C500.86 44.2837 498.189 43.6 495.095 43.6V45.6C497.894 45.6 500.163 46.2163 501.959 47.3876L503.051 45.7124ZM495.095 43.6C491.811 43.6 488.891 44.3775 486.372 45.9638L487.438 47.6562C489.598 46.2958 492.138 45.6 495.095 45.6V43.6ZM486.381 45.9583C483.953 47.4522 482.055 49.5931 480.68 52.3428L482.469 53.2372C483.694 50.7869 485.35 48.9411 487.429 47.6617L486.381 45.9583ZM480.669 52.3671C479.378 55.1329 478.755 58.4491 478.755 62.28H480.755C480.755 58.6575 481.345 55.6471 482.481 53.2129L480.669 52.3671ZM478.755 62.28C478.755 66.121 479.425 69.4836 480.805 72.3356L482.605 71.4644C481.385 68.943 480.755 65.8924 480.755 62.28H478.755ZM480.822 72.3706C482.29 75.1227 484.32 77.2947 486.906 78.8648L487.944 77.1552C485.677 75.7786 483.893 73.8773 482.587 71.4294L480.822 72.3706ZM486.942 78.8856C489.627 80.3673 492.746 81.09 496.265 81.09V79.09C493.024 79.09 490.249 78.4261 487.908 77.1344L486.942 78.8856ZM496.265 81.09C499.497 81.09 502.446 80.551 505.097 79.454L504.332 77.606C501.957 78.589 499.273 79.09 496.265 79.09V81.09ZM505.124 79.4425C507.774 78.2545 510.099 76.5195 512.096 74.2506L510.594 72.9294C508.777 74.9939 506.682 76.5522 504.306 77.6175L505.124 79.4425ZM510.638 74.2971L521.558 85.2171L522.972 83.8029L512.052 72.8829L510.638 74.2971ZM521.506 83.8592C518.488 87.3797 514.848 90.0156 510.574 91.7753L511.336 93.6247C515.902 91.7444 519.802 88.9203 523.024 85.1608L521.506 83.8592ZM510.574 91.7753C506.287 93.5406 501.565 94.43 496.395 94.43V96.43C501.798 96.43 506.783 95.4994 511.336 93.6247L510.574 91.7753Z" fill="black"/>
</svg>
